<?xml version="1.0" standalone="no"?><!DOCTYPE svg PUBLIC "-//W3C//DTD SVG 1.1//EN" "http://www.w3.org/Graphics/SVG/1.1/DTD/svg11.dtd"><svg t="1665766388136" class="icon" viewBox="0 0 1024 1024" version="1.1" xmlns="http://www.w3.org/2000/svg" p-id="6719" xmlns:xlink="http://www.w3.org/1999/xlink" width="200" height="200"><path d="M179.2 120.644267c-42.3424 0-76.8 34.4576-76.8 76.8s34.4576 76.8 76.8 76.8 76.8-34.4576 76.8-76.8-34.4576-76.8-76.8-76.8z m0 119.466666c-23.517867 0-42.666667-19.131733-42.666667-42.666666s19.1488-42.666667 42.666667-42.666667 42.666667 19.131733 42.666667 42.666667-19.1488 42.666667-42.666667 42.666666z" fill="" p-id="6720"></path><path d="M853.333333 171.844267m-17.066666 0a17.066667 17.066667 0 1 0 34.133333 0 17.066667 17.066667 0 1 0-34.133333 0Z" fill="" p-id="6721"></path><path d="M785.066667 171.844267m-17.066667 0a17.066667 17.066667 0 1 0 34.133333 0 17.066667 17.066667 0 1 0-34.133333 0Z" fill="" p-id="6722"></path><path d="M887.466667 223.044267m-17.066667 0a17.066667 17.066667 0 1 0 34.133333 0 17.066667 17.066667 0 1 0-34.133333 0Z" fill="" p-id="6723"></path><path d="M819.2 223.044267m-17.066667 0a17.066667 17.066667 0 1 0 34.133334 0 17.066667 17.066667 0 1 0-34.133334 0Z" fill="" p-id="6724"></path><path d="M716.8 171.844267m-17.066667 0a17.066667 17.066667 0 1 0 34.133334 0 17.066667 17.066667 0 1 0-34.133334 0Z" fill="" p-id="6725"></path><path d="M750.933333 223.044267m-17.066666 0a17.066667 17.066667 0 1 0 34.133333 0 17.066667 17.066667 0 1 0-34.133333 0Z" fill="" p-id="6726"></path><path d="M648.533333 171.844267m-17.066666 0a17.066667 17.066667 0 1 0 34.133333 0 17.066667 17.066667 0 1 0-34.133333 0Z" fill="" p-id="6727"></path><path d="M682.666667 223.044267m-17.066667 0a17.066667 17.066667 0 1 0 34.133333 0 17.066667 17.066667 0 1 0-34.133333 0Z" fill="" p-id="6728"></path><path d="M580.266667 171.844267m-17.066667 0a17.066667 17.066667 0 1 0 34.133333 0 17.066667 17.066667 0 1 0-34.133333 0Z" fill="" p-id="6729"></path><path d="M614.4 223.044267m-17.066667 0a17.066667 17.066667 0 1 0 34.133334 0 17.066667 17.066667 0 1 0-34.133334 0Z" fill="" p-id="6730"></path><path d="M1024 297.984V96.887467a78.728533 78.728533 0 0 0-78.6432-78.6432H78.6432A78.728533 78.728533 0 0 0 0 96.887467V297.984c0 25.070933 11.997867 47.172267 30.327467 61.576533C11.997867 373.981867 0 396.0832 0 421.154133V622.250667a78.728533 78.728533 0 0 0 78.6432 78.6432h866.7136A78.728533 78.728533 0 0 0 1024 622.250667V421.154133c0-25.070933-11.997867-47.172267-30.327467-61.576533C1012.002133 345.156267 1024 323.054933 1024 297.984z m-34.133333 123.170133V622.250667a44.561067 44.561067 0 0 1-44.509867 44.509866H78.6432A44.544 44.544 0 0 1 34.133333 622.250667V421.154133a44.561067 44.561067 0 0 1 44.509867-44.509866h866.696533A44.561067 44.561067 0 0 1 989.866667 421.154133zM78.6432 342.510933A44.561067 44.561067 0 0 1 34.133333 297.984V96.887467a44.561067 44.561067 0 0 1 44.509867-44.509867h866.696533A44.561067 44.561067 0 0 1 989.866667 96.887467V297.984a44.561067 44.561067 0 0 1-44.509867 44.509867H78.6432z" fill="" p-id="6731"></path><path d="M179.2 598.510933c42.3424 0 76.8-34.4576 76.8-76.8s-34.4576-76.8-76.8-76.8-76.8 34.440533-76.8 76.8 34.4576 76.8 76.8 76.8z m0-119.466666c23.517867 0 42.666667 19.131733 42.666667 42.666666s-19.1488 42.666667-42.666667 42.666667-42.666667-19.131733-42.666667-42.666667 19.1488-42.666667 42.666667-42.666666zM537.1392 878.165333c3.908267 2.2016 7.492267 4.9152 10.683733 8.0384a17.032533 17.032533 0 0 0 24.132267-0.238933 17.066667 17.066667 0 0 0-0.238933-24.132267 86.3232 86.3232 0 0 0-17.732267-13.3632 17.066667 17.066667 0 1 0-16.8448 29.696zM537.668267 967.099733a49.937067 49.937067 0 0 1-12.270934 5.12 17.083733 17.083733 0 0 0 8.874667 32.9728 84.599467 84.599467 0 0 0 20.565333-8.584533 17.083733 17.083733 0 0 0-17.169066-29.508267zM580.266667 905.301333c-9.4208 0-17.066667 8.0384-17.066667 17.4592 0 4.5056-0.580267 8.942933-1.723733 13.226667a17.066667 17.066667 0 0 0 32.9728 8.8064c1.911467-7.133867 2.884267-14.557867 2.884266-22.016v-0.802133c0-9.437867-7.645867-16.674133-17.066666-16.674134zM486.570667 967.202133a50.8928 50.8928 0 0 1-10.5984-8.072533 17.066667 17.066667 0 0 0-24.064 24.200533c5.290667 5.256533 11.246933 9.796267 17.7152 13.499734a17.083733 17.083733 0 0 0 16.9472-29.627734zM489.250133 840.533333c-7.168 1.962667-14.062933 4.898133-20.48 8.669867a17.066667 17.066667 0 0 0 17.3056 29.422933c3.857067-2.269867 7.970133-4.010667 12.270934-5.205333a17.0496 17.0496 0 1 0-9.096534-32.887467zM460.8 922.7776c0-4.4032 0.5632-8.7552 1.655467-12.9536a17.066667 17.066667 0 0 0-33.041067-8.6016c-1.826133 6.997333-2.747733 14.250667-2.747733 21.9136l17.066666 0.034133h-17.066666c0 9.437867 7.6288 16.861867 17.066666 16.861867 9.437867 0.017067 17.066667-7.816533 17.066667-17.2544z" fill="" p-id="6732"></path><path d="M853.333333 496.110933m-17.066666 0a17.066667 17.066667 0 1 0 34.133333 0 17.066667 17.066667 0 1 0-34.133333 0Z" fill="" p-id="6733"></path><path d="M785.066667 496.110933m-17.066667 0a17.066667 17.066667 0 1 0 34.133333 0 17.066667 17.066667 0 1 0-34.133333 0Z" fill="" p-id="6734"></path><path d="M887.466667 547.310933m-17.066667 0a17.066667 17.066667 0 1 0 34.133333 0 17.066667 17.066667 0 1 0-34.133333 0Z" fill="" p-id="6735"></path><path d="M819.2 547.310933m-17.066667 0a17.066667 17.066667 0 1 0 34.133334 0 17.066667 17.066667 0 1 0-34.133334 0Z" fill="" p-id="6736"></path><path d="M716.8 496.110933m-17.066667 0a17.066667 17.066667 0 1 0 34.133334 0 17.066667 17.066667 0 1 0-34.133334 0Z" fill="" p-id="6737"></path><path d="M750.933333 547.310933m-17.066666 0a17.066667 17.066667 0 1 0 34.133333 0 17.066667 17.066667 0 1 0-34.133333 0Z" fill="" p-id="6738"></path><path d="M648.533333 496.110933m-17.066666 0a17.066667 17.066667 0 1 0 34.133333 0 17.066667 17.066667 0 1 0-34.133333 0Z" fill="" p-id="6739"></path><path d="M682.666667 547.310933m-17.066667 0a17.066667 17.066667 0 1 0 34.133333 0 17.066667 17.066667 0 1 0-34.133333 0Z" fill="" p-id="6740"></path><path d="M580.266667 496.110933m-17.066667 0a17.066667 17.066667 0 1 0 34.133333 0 17.066667 17.066667 0 1 0-34.133333 0Z" fill="" p-id="6741"></path><path d="M614.4 547.310933m-17.066667 0a17.066667 17.066667 0 1 0 34.133334 0 17.066667 17.066667 0 1 0-34.133334 0Z" fill="" p-id="6742"></path><path d="M375.466667 905.710933h-17.066667a17.066667 17.066667 0 1 0 0 34.133334h17.066667a17.066667 17.066667 0 1 0 0-34.133334zM238.933333 905.710933h-17.066666a17.066667 17.066667 0 1 0 0 34.133334h17.066666a17.066667 17.066667 0 1 0 0-34.133334zM307.2 905.710933h-17.066667a17.066667 17.066667 0 1 0 0 34.133334h17.066667a17.066667 17.066667 0 1 0 0-34.133334zM34.133333 905.710933H17.066667a17.066667 17.066667 0 1 0 0 34.133334h17.066666a17.066667 17.066667 0 1 0 0-34.133334zM102.4 905.710933H85.333333a17.066667 17.066667 0 1 0 0 34.133334h17.066667a17.066667 17.066667 0 1 0 0-34.133334zM170.666667 905.710933H153.6a17.066667 17.066667 0 1 0 0 34.133334h17.066667a17.066667 17.066667 0 1 0 0-34.133334zM665.6 905.710933h-17.066667a17.066667 17.066667 0 1 0 0 34.133334h17.066667a17.066667 17.066667 0 1 0 0-34.133334zM802.133333 905.710933h-17.066666a17.066667 17.066667 0 1 0 0 34.133334h17.066666a17.066667 17.066667 0 1 0 0-34.133334zM733.866667 905.710933h-17.066667a17.066667 17.066667 0 1 0 0 34.133334h17.066667a17.066667 17.066667 0 1 0 0-34.133334zM1006.933333 905.710933h-17.066666a17.066667 17.066667 0 1 0 0 34.133334h17.066666a17.066667 17.066667 0 1 0 0-34.133334zM870.4 905.710933h-17.066667a17.066667 17.066667 0 1 0 0 34.133334h17.066667a17.066667 17.066667 0 1 0 0-34.133334zM938.666667 905.710933h-17.066667a17.066667 17.066667 0 1 0 0 34.133334h17.066667a17.066667 17.066667 0 1 0 0-34.133334zM529.066667 803.310933v-17.066666a17.066667 17.066667 0 1 0-34.133334 0v17.066666a17.066667 17.066667 0 1 0 34.133334 0zM494.933333 717.9776v17.066667a17.066667 17.066667 0 1 0 34.133334 0v-17.066667a17.066667 17.066667 0 1 0-34.133334 0z" fill="" p-id="6743"></path></svg>